<svg xmlns="http://www.w3.org/2000/svg" xmlns:xlink="http://www.w3.org/1999/xlink" width="500" zoomAndPan="magnify" viewBox="0 0 375 374.999991" height="500" preserveAspectRatio="xMidYMid meet" version="1.0"><defs><g/></defs><g fill="#ffffff" fill-opacity="1"><g transform="translate(71.061349, 240.942524)"><g><path d="M 2.515625 17.515625 C 2.859375 17.515625 3.203125 17.515625 3.328125 17.40625 C 4.234375 17.171875 5.03125 16.71875 5.84375 15.921875 C 6.40625 15.34375 6.984375 14.65625 7.5625 14.078125 C 8.125 13.515625 8.59375 12.828125 9.046875 12.25 C 10.078125 10.765625 11.109375 9.15625 12.140625 7.5625 C 13.171875 5.953125 14.078125 4.34375 15.109375 2.75 C 18.3125 -2.296875 21.296875 -7.4375 24.390625 -12.59375 C 28.859375 -19.921875 33.78125 -28.171875 40.296875 -33.78125 C 41.21875 -34.578125 42.140625 -35.15625 43.046875 -35.71875 C 43.171875 -35.84375 43.28125 -35.84375 43.515625 -35.84375 C 44.078125 -35.84375 44.421875 -35.609375 44.546875 -35.03125 C 44.65625 -34.46875 44.65625 -34 44.765625 -33.546875 C 44.765625 -33.09375 44.765625 -32.625 44.890625 -32.0625 L 44.890625 -25.640625 C 44.546875 -21.640625 44.65625 -18.09375 45.234375 -14.078125 C 46.265625 -9.84375 47.171875 -5.84375 51.75 -5.84375 C 51.875 -5.84375 52.09375 -5.84375 52.328125 -5.953125 C 52.4375 -5.953125 52.671875 -5.953125 52.90625 -5.953125 C 54.609375 -6.296875 56.21875 -6.984375 57.703125 -8.015625 C 60.578125 -9.96875 70.1875 -20.71875 71.453125 -23.9375 C 71.5625 -24.5 71.453125 -24.96875 70.875 -25.1875 C 70.640625 -25.421875 70.421875 -25.53125 70.078125 -25.53125 C 69.265625 -25.53125 68.359375 -24.046875 68.015625 -23.59375 C 65.71875 -20.71875 58.515625 -12.140625 56.328125 -10.65625 C 55.078125 -9.84375 53.921875 -9.046875 52.21875 -8.9375 C 50.953125 -8.9375 50.265625 -9.046875 49.46875 -10.3125 C 48.65625 -11.796875 48.4375 -13.28125 48.09375 -15 C 47.515625 -19.46875 47.40625 -23.59375 47.75 -28.046875 C 47.859375 -29.3125 47.859375 -30.578125 47.859375 -31.828125 C 47.859375 -33.09375 47.75 -34.34375 47.515625 -35.609375 C 47.0625 -37.90625 45.921875 -39.046875 44.078125 -39.046875 C 39.609375 -39.046875 32.171875 -29.65625 29.65625 -26.21875 C 26.453125 -21.75 23.59375 -17.0625 20.71875 -12.359375 L 10.765625 4.34375 C 8.8125 7.4375 6.875 10.421875 4.234375 13.046875 C 4 13.28125 3.78125 13.28125 3.65625 13.171875 C 3.328125 13.171875 3.203125 13.046875 3.203125 12.703125 C 3.328125 12.140625 3.328125 11.671875 3.328125 11.21875 C 3.328125 10.65625 3.4375 10.1875 3.546875 9.734375 C 4.125 7.78125 4.578125 5.71875 5.03125 3.78125 C 5.5 1.71875 5.953125 -0.34375 6.53125 -2.296875 C 10.53125 -16.609375 15.921875 -30 22.21875 -43.625 L 30.234375 -61.25 C 30.453125 -61.71875 30.6875 -62.171875 30.921875 -62.625 C 31.140625 -63.09375 31.265625 -63.546875 31.140625 -64.125 C 31.03125 -64.6875 30.796875 -64.921875 30.578125 -65.03125 C 30.234375 -65.15625 30.109375 -65.265625 30 -65.265625 C 29.765625 -65.265625 29.546875 -65.15625 29.203125 -65.03125 C 28.734375 -64.6875 28.390625 -64.234375 28.28125 -63.78125 C 28.046875 -63.3125 27.828125 -62.859375 27.59375 -62.515625 C 25.640625 -58.046875 23.59375 -53.8125 21.640625 -49.578125 C 12.828125 -30.796875 5.15625 -11.453125 0.6875 8.8125 C 0.234375 11.109375 -0.234375 13.28125 0.234375 15.578125 C 0.453125 16.828125 1.265625 17.515625 2.515625 17.515625 Z M 2.515625 17.515625 "/></g></g></g><g fill="#ffffff" fill-opacity="1"><g transform="translate(136.779889, 240.942524)"><g><path d="M 4.8125 -5.71875 C 5.84375 -5.71875 6.984375 -6.0625 8.015625 -6.640625 C 9.5 -7.671875 10.65625 -8.9375 11.453125 -10.65625 C 12.484375 -12.828125 12.703125 -15 12.25 -17.171875 C 11.90625 -19.125 11.796875 -19.125 13.96875 -19.46875 C 16.375 -19.6875 18.546875 -20.265625 20.71875 -21.0625 C 22.78125 -21.875 24.96875 -22.5625 27.140625 -23.359375 C 28.171875 -23.703125 28.390625 -24.390625 28.046875 -25.1875 C 27.703125 -25.765625 27.140625 -26.109375 26.5625 -26.109375 L 24.734375 -25.640625 C 23.703125 -25.296875 22.671875 -24.84375 21.640625 -24.5 C 20.609375 -24.15625 19.46875 -23.703125 18.4375 -23.359375 C 16.265625 -22.671875 14.203125 -22.328125 12.015625 -22.328125 L 8.46875 -22.328125 C 7.671875 -22.21875 6.984375 -21.40625 7.328125 -20.609375 C 7.671875 -19.8125 8.015625 -19.125 8.46875 -18.3125 C 10.1875 -15.6875 9.625 -13.28125 8.125 -10.875 C 7.09375 -9.046875 5.953125 -8.8125 4.125 -8.8125 C 2.640625 -9.15625 1.828125 -10.53125 1.828125 -12.703125 C 1.828125 -13.96875 1.953125 -15.109375 2.296875 -16.03125 C 2.75 -17.96875 3.546875 -19.921875 4.578125 -21.875 C 5.84375 -23.8125 6.875 -25.765625 9.5 -26.21875 C 10.3125 -26.328125 10.3125 -26.90625 10.1875 -27.703125 C 10.078125 -28.28125 9.734375 -28.734375 8.9375 -28.859375 C 8.359375 -28.859375 7.90625 -28.734375 7.4375 -28.515625 C 2.984375 -26.796875 -0.796875 -18.203125 -1.140625 -13.515625 C -1.265625 -12.59375 -1.140625 -11.5625 -0.921875 -10.53125 C -0.34375 -7.4375 2.0625 -5.71875 4.8125 -5.71875 Z M 4.8125 -5.71875 "/></g></g></g><g fill="#ffffff" fill-opacity="1"><g transform="translate(159.220367, 240.942524)"><g><path d="M -0.34375 1.953125 C 0.34375 1.953125 0.921875 1.609375 1.265625 1.03125 C 2.0625 -0.234375 2.75 -1.265625 3.328125 -2.515625 C 4.34375 -4.46875 5.265625 -6.296875 6.1875 -8.125 C 6.984375 -9.96875 7.90625 -11.796875 8.8125 -13.625 C 10.1875 -16.265625 11.796875 -18.78125 13.96875 -20.953125 C 14.421875 -21.53125 14.890625 -22.09375 15.921875 -22.09375 C 16.265625 -21.640625 16.484375 -21.1875 16.71875 -20.71875 C 16.953125 -20.265625 17.296875 -19.8125 17.640625 -19.34375 C 18.890625 -17.640625 20.375 -16.828125 22.328125 -16.828125 C 25.53125 -16.828125 30.34375 -20.609375 32.515625 -22.78125 C 32.859375 -23.125 33.203125 -23.59375 33.546875 -24.28125 C 33.78125 -24.734375 33.65625 -25.1875 33.203125 -25.640625 C 32.859375 -25.875 32.625 -25.984375 32.28125 -25.984375 C 32.0625 -25.984375 31.953125 -25.984375 31.828125 -25.875 C 31.265625 -25.53125 30.796875 -25.1875 30.34375 -24.734375 C 28.390625 -23.125 24.390625 -19.8125 22.328125 -19.8125 C 21.296875 -19.8125 20.375 -20.5 19.578125 -21.875 C 19.34375 -22.21875 19.125 -22.671875 19 -23.25 C 18.78125 -23.703125 18.546875 -24.15625 18.3125 -24.5 C 17.75 -25.421875 17.0625 -25.875 16.140625 -25.875 C 15.6875 -25.875 15.234375 -25.765625 14.765625 -25.53125 C 11.21875 -23.359375 8.46875 -19.46875 6.640625 -15.921875 L 2.171875 -6.875 L 2.0625 -6.984375 L 2.171875 -6.984375 C 1.609375 -8.25 1.953125 -9.390625 2.296875 -10.65625 C 3.203125 -14.078125 4.46875 -17.640625 5.953125 -21.1875 C 6.984375 -23.46875 8.015625 -25.765625 8.9375 -28.046875 C 9.28125 -28.96875 9.5 -29.765625 9.5 -30.578125 C 9.625 -31.140625 9.390625 -31.484375 8.703125 -31.71875 L 8.359375 -31.71875 C 7.90625 -31.71875 7.5625 -31.609375 7.328125 -31.375 C 6.984375 -30.921875 6.75 -30.34375 6.40625 -29.765625 C 2.40625 -20.609375 -0.796875 -13.046875 -2.296875 -2.859375 C -2.40625 -2.296875 -2.40625 -1.828125 -2.40625 -1.375 C -2.296875 -0.796875 -2.296875 -0.34375 -2.296875 0.109375 C -2.171875 1.03125 -1.71875 1.609375 -0.921875 1.828125 C -0.796875 1.828125 -0.6875 1.828125 -0.6875 1.953125 C -0.578125 1.953125 -0.453125 1.953125 -0.34375 1.953125 Z M -0.34375 1.953125 "/></g></g></g><g fill="#ffffff" fill-opacity="1"><g transform="translate(187.156468, 240.942524)"><g><path d="M 0.6875 -1.140625 C 1.265625 -1.140625 1.71875 -1.375 2.171875 -1.828125 C 3.4375 -2.859375 3.890625 -4.125 4.6875 -5.5 C 6.53125 -8.703125 8.359375 -12.015625 10.1875 -15.34375 C 11.671875 -17.96875 13.28125 -20.5 15.234375 -22.78125 C 15.578125 -23.125 15.796875 -23.59375 16.140625 -24.15625 C 16.484375 -24.625 16.828125 -24.734375 17.296875 -24.625 C 17.859375 -24.5 18.203125 -24.046875 18.09375 -23.46875 C 17.96875 -22.90625 17.859375 -22.328125 17.859375 -21.875 C 17.859375 -20.15625 17.75 -18.4375 17.640625 -16.71875 C 17.640625 -14.890625 17.640625 -13.28125 18.4375 -11.5625 C 19 -10.765625 19.578125 -10.421875 20.375 -10.421875 C 20.5 -10.421875 20.84375 -10.53125 21.296875 -10.65625 C 22.09375 -10.984375 22.90625 -11.5625 23.46875 -12.140625 C 24.046875 -12.703125 24.734375 -13.390625 25.296875 -13.96875 C 26.109375 -14.765625 27.015625 -15.6875 27.828125 -16.484375 C 28.625 -17.296875 29.546875 -18.09375 30.578125 -18.65625 C 31.140625 -18.3125 31.609375 -17.75 31.828125 -17.171875 C 31.953125 -16.609375 32.28125 -16.03125 32.625 -15.453125 C 33.890625 -13.515625 35.5 -12.59375 37.4375 -12.59375 C 38.359375 -12.59375 39.28125 -12.703125 40.078125 -13.046875 C 41.671875 -13.859375 43.046875 -14.65625 44.203125 -15.578125 L 51.0625 -21.40625 C 51.640625 -21.875 52.21875 -22.4375 52.671875 -23.015625 C 53.46875 -23.8125 53.46875 -24.5 52.78125 -25.1875 C 52.5625 -25.53125 52.21875 -25.765625 51.75 -25.765625 C 51.40625 -25.765625 51.0625 -25.53125 50.5 -25.1875 C 50.375 -24.84375 50.15625 -24.734375 50.03125 -24.625 C 47.625 -22.4375 45 -20.15625 42.359375 -17.96875 C 41.328125 -17.171875 38.9375 -15.578125 37.4375 -15.578125 C 36.75 -15.578125 36.0625 -15.921875 35.5 -16.609375 C 35.03125 -17.171875 34.6875 -17.75 34.34375 -18.546875 C 34.234375 -18.890625 34.125 -19.234375 34 -19.578125 C 33.890625 -19.921875 33.65625 -20.265625 33.4375 -20.609375 C 32.96875 -21.640625 32.171875 -22.09375 31.140625 -22.09375 C 31.03125 -22.09375 30.578125 -21.984375 30 -21.875 C 29.3125 -21.53125 28.625 -21.0625 27.828125 -20.5 C 27.25 -19.921875 26.5625 -19.234375 25.984375 -18.65625 C 25.296875 -18.09375 24.625 -17.40625 24.046875 -16.828125 L 21.875 -14.765625 C 21.75 -14.765625 21.75 -14.765625 21.640625 -14.65625 C 21.0625 -14.65625 20.71875 -14.890625 20.71875 -15.34375 C 20.71875 -15.6875 20.71875 -16.140625 20.71875 -16.609375 C 20.609375 -17.0625 20.609375 -17.515625 20.609375 -17.96875 C 20.71875 -18.890625 20.71875 -19.8125 20.84375 -20.71875 C 20.953125 -21.640625 20.953125 -22.5625 20.953125 -23.59375 C 21.0625 -24.96875 21.0625 -26.328125 20.5 -27.59375 C 20.15625 -28.625 19.46875 -29.203125 18.4375 -29.203125 C 18.09375 -29.203125 17.640625 -29.078125 17.171875 -28.859375 C 14.078125 -26.671875 11.5625 -23.25 9.625 -20.15625 C 8.59375 -18.546875 7.671875 -16.953125 6.75 -15.34375 C 5.84375 -13.625 4.921875 -12.015625 4 -10.421875 C 3.890625 -10.3125 3.78125 -10.078125 3.65625 -9.84375 C 3.546875 -9.625 3.4375 -9.5 3.09375 -9.5 C 2.859375 -9.5 2.640625 -9.5 2.515625 -9.625 C 2.640625 -9.84375 2.640625 -10.078125 2.640625 -10.3125 C 2.515625 -10.53125 2.515625 -10.765625 2.640625 -11.109375 C 4.578125 -20.265625 7.21875 -29.421875 11.21875 -37.78125 C 11.453125 -38.359375 11.671875 -38.8125 12.015625 -39.390625 C 12.25 -39.84375 12.25 -40.421875 12.140625 -40.984375 C 12.015625 -41.328125 11.453125 -41.90625 11.109375 -41.90625 C 10.984375 -41.90625 10.765625 -41.796875 10.421875 -41.671875 C 7.90625 -40.421875 2.859375 -23.9375 1.953125 -20.953125 C 0.234375 -15.109375 -1.140625 -9.046875 -1.140625 -2.984375 C -1.140625 -2.0625 -0.6875 -1.484375 0.109375 -1.265625 C 0.234375 -1.140625 0.453125 -1.140625 0.6875 -1.140625 Z M 0.6875 -1.140625 "/></g></g></g><g fill="#ffffff" fill-opacity="1"><g transform="translate(234.670743, 240.942524)"><g><path d="M 4.921875 -4.125 C 8.015625 -4.125 11.109375 -6.53125 13.28125 -8.46875 C 18.3125 -12.703125 22.328125 -17.75 26.328125 -22.90625 C 26.671875 -23.25 26.90625 -23.59375 27.015625 -24.15625 C 27.140625 -24.734375 27.015625 -25.1875 26.5625 -25.53125 C 26.328125 -25.765625 26.109375 -25.875 25.765625 -25.875 C 25.53125 -25.875 25.296875 -25.765625 25.1875 -25.640625 C 24.625 -25.1875 24.046875 -24.734375 23.59375 -24.15625 C 22.671875 -23.125 21.75 -21.984375 20.953125 -20.953125 C 20.15625 -19.921875 19.234375 -18.78125 18.3125 -17.75 C 15.6875 -14.65625 12.9375 -12.015625 9.84375 -9.390625 C 8.46875 -8.359375 7.21875 -7.5625 5.5 -7.21875 C 4.234375 -7.21875 3.546875 -7.328125 3.203125 -8.59375 C 2.984375 -9.625 2.859375 -10.65625 2.984375 -11.5625 C 3.65625 -16.953125 5.375 -22.671875 7.328125 -27.703125 C 7.4375 -28.28125 7.328125 -28.734375 6.75 -28.96875 C 6.40625 -29.078125 6.1875 -29.203125 5.953125 -29.203125 C 5.71875 -29.203125 5.375 -29.078125 5.03125 -28.859375 C 2.0625 -25.875 0.796875 -16.609375 0 -11.5625 C 0 -9.84375 0 -8.703125 0.453125 -7.4375 C 1.265625 -5.265625 2.75 -4.125 4.921875 -4.125 Z M 7.90625 -33.3125 C 9.15625 -33.3125 10.3125 -34.46875 10.3125 -35.71875 C 10.1875 -36.984375 9.390625 -37.5625 8.015625 -37.5625 C 6.640625 -37.5625 5.953125 -36.875 5.953125 -35.5 C 6.0625 -34.125 6.875 -33.203125 7.90625 -33.3125 Z M 7.90625 -33.3125 "/></g></g></g><g fill="#ffffff" fill-opacity="1"><g transform="translate(255.966297, 240.942524)"><g><path d="M 3.78125 6.0625 C 6.0625 6.0625 9.734375 2.171875 10.984375 0.234375 C 13.390625 -2.984375 15.921875 -6.296875 18.4375 -9.84375 C 20.84375 -13.28125 23.359375 -16.609375 25.765625 -19.6875 C 26.328125 -20.609375 27.015625 -21.640625 27.484375 -22.5625 C 27.828125 -22.90625 27.9375 -23.359375 27.9375 -23.9375 C 28.046875 -24.5 27.9375 -24.96875 27.359375 -25.1875 C 27.015625 -25.296875 26.796875 -25.421875 26.5625 -25.421875 C 25.765625 -25.421875 24.734375 -23.59375 24.390625 -23.015625 C 19.34375 -16.03125 13.515625 -7.90625 8.125 -1.03125 C 7.5625 -0.234375 5.375 2.515625 4.34375 2.515625 C 3.78125 2.515625 3.4375 2.171875 3.328125 1.609375 C 2.515625 -0.6875 2.75 -3.09375 3.09375 -5.375 C 3.65625 -12.484375 5.265625 -24.96875 9.28125 -31.03125 C 14.546875 -38.9375 24.390625 -55.421875 26.453125 -64.578125 C 26.5625 -65.5 26.453125 -66.40625 25.421875 -66.875 C 24.96875 -66.984375 24.734375 -67.09375 24.625 -67.09375 C 24.15625 -67.09375 23.59375 -66.875 23.015625 -66.40625 C 15.109375 -58.515625 8.703125 -41.21875 5.265625 -30.796875 C 4.46875 -28.171875 3.78125 -25.875 2.0625 -23.703125 C 1.609375 -23.25 1.265625 -22.5625 1.71875 -21.984375 C 2.75 -20.71875 2.296875 -19.34375 1.953125 -18.09375 C 0.921875 -13.171875 0.109375 -8.359375 0 -2.515625 C 0 -2.171875 0 -1.609375 0 -0.921875 C 0 -0.234375 0 0.453125 0.109375 1.265625 C 0.453125 3.09375 1.609375 6.0625 3.78125 6.0625 Z M 13.046875 -41.109375 C 12.703125 -41.796875 12.828125 -42.59375 13.171875 -43.515625 C 15.34375 -49.125 17.96875 -54.390625 21.0625 -59.546875 C 21.53125 -60.109375 21.875 -60.453125 22.21875 -60.453125 C 22.328125 -60.453125 22.5625 -60.34375 22.90625 -60.234375 C 22.78125 -60.34375 22.78125 -60.453125 22.78125 -60.578125 C 22.78125 -60.453125 22.78125 -60.453125 22.90625 -60.34375 L 22.90625 -60.234375 L 19.8125 -54.046875 C 17.515625 -49.6875 15.34375 -45.34375 13.171875 -41.109375 C 13.171875 -41.21875 13.171875 -41.21875 13.171875 -41.21875 C 13.046875 -41.21875 13.046875 -41.21875 13.046875 -41.109375 Z M 13.046875 -41.109375 "/></g></g></g><g fill="#ffffff" fill-opacity="1"><g transform="translate(278.17779, 240.942524)"><g><path d="M 24.28125 -8.8125 C 24.734375 -8.8125 25.078125 -8.8125 25.421875 -8.9375 C 31.375 -9.84375 38.59375 -17.75 42.484375 -22.328125 C 42.703125 -22.5625 42.9375 -23.015625 43.28125 -23.59375 C 43.625 -24.15625 43.390625 -24.625 42.828125 -25.1875 C 42.59375 -25.421875 42.359375 -25.53125 42.015625 -25.53125 C 41.796875 -25.53125 41.5625 -25.421875 41.453125 -25.296875 C 40.640625 -24.625 39.953125 -23.9375 39.28125 -23.125 C 36.53125 -20.15625 28.734375 -11.796875 24.734375 -11.796875 C 23.8125 -11.796875 23.25 -12.484375 23.125 -13.859375 C 23.015625 -15 23.015625 -16.140625 23.125 -17.296875 C 23.46875 -21.0625 24.28125 -24.5 25.296875 -27.828125 C 25.421875 -28.390625 25.640625 -28.96875 25.765625 -29.546875 C 25.875 -30 25.984375 -30.578125 26.109375 -31.140625 C 26.21875 -31.828125 25.984375 -32.28125 25.296875 -32.625 C 24.96875 -32.75 24.734375 -32.859375 24.5 -32.859375 C 24.15625 -32.859375 23.9375 -32.75 23.59375 -32.40625 C 23.015625 -31.828125 22.4375 -31.375 21.984375 -30.796875 C 21.40625 -30.234375 20.953125 -29.765625 20.375 -29.203125 C 17.0625 -25.1875 13.625 -21.53125 9.625 -18.203125 C 9.046875 -17.75 8.46875 -17.296875 7.90625 -16.953125 C 7.328125 -16.484375 6.640625 -16.03125 6.0625 -15.578125 C 5.609375 -15.234375 5.265625 -15.109375 5.15625 -15.109375 C 4.921875 -15.109375 4.8125 -15.109375 4.6875 -15.234375 C 4.34375 -15.34375 4.234375 -15.578125 4.234375 -15.796875 C 4.234375 -16.03125 4.234375 -16.265625 4.234375 -16.484375 C 4.8125 -20.15625 5.84375 -23.59375 7.5625 -26.796875 C 8.015625 -27.484375 8.359375 -28.171875 8.703125 -28.734375 C 9.28125 -29.546875 9.15625 -30.109375 8.46875 -30.6875 C 8.25 -30.921875 7.90625 -31.03125 7.5625 -31.03125 C 7.21875 -31.03125 6.75 -30.796875 6.296875 -30.34375 L 5.375 -29.078125 C 3.09375 -25.078125 1.828125 -20.84375 1.265625 -16.375 C 1.140625 -15.34375 1.140625 -14.421875 1.375 -13.734375 C 1.609375 -12.25 2.40625 -11.453125 3.890625 -11.453125 C 4.234375 -11.453125 4.578125 -11.5625 5.03125 -11.671875 C 9.046875 -13.390625 12.828125 -16.953125 15.921875 -20.03125 C 16.484375 -20.609375 17.0625 -21.0625 17.640625 -21.640625 C 18.09375 -22.21875 18.546875 -22.671875 19.125 -23.25 C 19.234375 -23.359375 19.46875 -23.59375 19.6875 -23.8125 C 19.8125 -24.046875 20.03125 -24.15625 20.375 -24.15625 L 20.609375 -24.15625 C 20.953125 -24.046875 21.1875 -23.8125 21.0625 -23.46875 C 20.953125 -23.125 20.84375 -22.90625 20.84375 -22.5625 C 20.71875 -21.53125 20.609375 -20.375 20.5 -19.34375 C 20.375 -18.3125 20.15625 -17.40625 20.03125 -16.71875 C 20.03125 -13.171875 20.265625 -8.8125 24.28125 -8.8125 Z M 24.28125 -8.8125 "/></g></g></g><g fill="#ffffff" fill-opacity="1"><g transform="translate(315.845741, 240.942524)"><g><path d="M -0.796875 9.15625 C 4.234375 9.15625 7.671875 -0.234375 8.015625 -5.03125 C 8.25 -6.53125 9.046875 -7.78125 10.3125 -8.703125 L 19.8125 -15.453125 C 22.671875 -17.640625 25.53125 -19.578125 28.625 -21.75 C 29.421875 -22.328125 30.109375 -22.90625 30.453125 -23.46875 C 31.03125 -24.046875 30.921875 -24.625 30.234375 -25.1875 C 30 -25.421875 29.765625 -25.53125 29.421875 -25.53125 C 29.078125 -25.53125 28.734375 -25.421875 28.390625 -25.1875 C 28.046875 -24.84375 27.703125 -24.625 27.359375 -24.5 L 10.765625 -12.828125 C 10.3125 -12.484375 9.734375 -12.140625 9.046875 -11.796875 C 8.703125 -12.359375 8.46875 -12.703125 8.46875 -12.828125 C 8.125 -16.953125 7.4375 -20.953125 6.640625 -25.078125 C 6.53125 -25.640625 6.40625 -26.328125 6.40625 -26.90625 C 6.40625 -27.484375 6.40625 -28.171875 6.53125 -28.734375 C 6.875 -32.96875 10.53125 -36.53125 14.765625 -36.53125 C 15.109375 -36.53125 15.34375 -36.53125 15.453125 -36.640625 C 16.265625 -36.984375 16.484375 -37.90625 15.921875 -38.46875 C 15 -39.390625 14.421875 -39.390625 13.171875 -39.390625 C 11.90625 -39.390625 10.765625 -39.046875 9.625 -38.359375 C 5.609375 -35.5 3.203125 -31.828125 3.546875 -26.671875 C 3.65625 -25.1875 3.78125 -23.703125 4.125 -22.21875 C 4.921875 -18.65625 5.375 -15.453125 5.5 -11.90625 C 5.5 -9.734375 5.15625 -8.359375 3.4375 -6.984375 C 0.6875 -5.15625 -3.890625 0.578125 -4.46875 3.65625 C -4.8125 5.609375 -4.46875 7.328125 -2.640625 8.59375 C -2.0625 8.9375 -1.375 9.15625 -0.796875 9.15625 Z M -0.578125 5.953125 C -0.921875 5.953125 -1.03125 5.84375 -1.140625 5.609375 C -1.375 5.375 -1.484375 5.03125 -1.484375 4.6875 C -1.609375 4.46875 -1.609375 4.234375 -1.484375 3.890625 C -0.34375 1.03125 1.609375 -1.375 4.234375 -3.328125 C 4.125 0.34375 2.40625 3.890625 0.234375 5.609375 C 0 5.84375 -0.234375 5.953125 -0.578125 5.953125 Z M -0.578125 5.953125 "/></g></g></g><g fill="#ffffff" fill-opacity="1"><g transform="translate(69.1875, 200.403664)"><g><path d="M 6.734375 9.8125 C 7.03125 9.8125 7.40625 9.625 7.796875 9.234375 C 8.5625 8.078125 8.5625 6.828125 8.171875 5.296875 L 9.046875 -0.96875 C 9.140625 -1.546875 9.421875 -1.828125 9.8125 -1.828125 C 10.203125 -1.828125 12.21875 -0.765625 12.609375 -0.484375 C 15.78125 1.25 21.84375 3.5625 25.5 3.5625 C 32.140625 3.5625 40.703125 -2.40625 45.3125 -7.03125 C 47.140625 -8.75 48.96875 -10.484375 50.796875 -12.3125 C 52.53125 -14.046875 54.359375 -15.78125 56.1875 -17.515625 C 56.671875 -18 57.0625 -18.375 57.25 -18.671875 C 58.21875 -19.71875 58.40625 -20.5 57.828125 -21.171875 C 57.640625 -21.359375 57.4375 -21.453125 57.25 -21.453125 C 56.765625 -21.453125 56.1875 -21.078125 55.515625 -20.390625 L 44.265625 -9.421875 C 39.453125 -5.09375 32.140625 1.0625 25.5 1.0625 C 22.125 1.0625 12.21875 -2.5 9.90625 -5.296875 C 10 -6.15625 10 -6.921875 10.109375 -7.796875 C 10.203125 -8.5625 10.203125 -9.328125 10.296875 -10.203125 C 10.484375 -11.640625 11.15625 -12.703125 12.40625 -13.5625 C 20.015625 -18.5625 27.71875 -24.53125 34.34375 -31.46875 C 40.984375 -38.296875 46.765625 -46 50.515625 -54.453125 C 51 -55.609375 51.484375 -56.859375 51.578125 -58.109375 C 51.578125 -58.796875 51.28125 -59.171875 50.703125 -59.265625 C 50.609375 -59.265625 50.609375 -59.265625 50.609375 -59.359375 C 50.515625 -59.359375 50.515625 -59.359375 50.421875 -59.359375 C 50.125 -59.359375 49.84375 -59.078125 49.546875 -58.59375 C 47.046875 -48.78125 34.546875 -34.34375 27.03125 -27.90625 C 22.90625 -24.15625 18.46875 -20.96875 13.953125 -17.609375 C 13.65625 -17.515625 13.375 -17.3125 13.1875 -17.125 C 12.890625 -16.9375 12.609375 -16.734375 12.3125 -16.640625 C 12.21875 -16.546875 12.125 -16.546875 12.03125 -16.546875 C 11.640625 -16.546875 11.453125 -16.734375 11.453125 -17.125 C 11.453125 -17.421875 11.453125 -17.796875 11.453125 -18.09375 C 11.453125 -18.375 11.453125 -18.671875 11.546875 -18.953125 C 13.1875 -29.640625 15.296875 -39.546875 18.375 -49.9375 C 18.46875 -50.421875 18.671875 -50.796875 18.765625 -51.1875 C 18.859375 -51.578125 18.953125 -51.953125 19.046875 -52.34375 C 19.140625 -53.015625 18.953125 -53.40625 18.46875 -53.6875 C 18.375 -53.6875 18.375 -53.6875 18.28125 -53.78125 C 18.1875 -53.78125 18.1875 -53.78125 18.09375 -53.78125 C 17.515625 -53.78125 17.125 -53.5 16.9375 -53.015625 C 16.640625 -52.34375 16.265625 -51.578125 15.96875 -50.609375 C 12.609375 -39.359375 10.109375 -27.90625 8.65625 -16.265625 C 8.375 -14.34375 7.59375 -13.1875 6.0625 -12.3125 C 5.09375 -11.828125 1.734375 -9.90625 0.765625 -8.953125 C -0.390625 -7.890625 -0.390625 -6.921875 1.0625 -6.25 C 1.34375 -6.15625 1.546875 -6.0625 1.828125 -5.96875 C 2.015625 -5.875 2.21875 -5.765625 2.5 -5.671875 C 3.375 -5.390625 4.328125 -5.09375 5.09375 -4.71875 C 6.734375 -3.9375 6.921875 -3.84375 6.640625 -2.015625 C 6.546875 -0.578125 6.34375 0.96875 6.15625 2.40625 C 5.96875 3.84375 5.765625 5.296875 5.578125 6.734375 C 5.484375 7.40625 5.296875 8.171875 5.578125 8.859375 C 5.765625 9.53125 6.15625 9.8125 6.734375 9.8125 Z M 6.734375 -7.03125 C 6.34375 -7.03125 6.0625 -7.125 5.875 -7.21875 C 5.578125 -7.3125 5.390625 -7.40625 5.203125 -7.5 C 4.90625 -7.59375 4.71875 -7.796875 4.421875 -7.890625 C 4.90625 -9.046875 6.15625 -9.53125 7.3125 -9.90625 C 7.984375 -9.234375 7.703125 -8.75 7.59375 -8.078125 C 7.5 -7.40625 7.21875 -7.03125 6.734375 -7.03125 Z M 6.734375 -7.03125 "/></g></g></g><g fill="#ffffff" fill-opacity="1"><g transform="translate(122.4884, 200.403664)"><g><path d="M 4.515625 -4.046875 C 11.15625 -4.046875 21.265625 -13.859375 25.890625 -18.765625 C 26.265625 -19.140625 26.5625 -19.4375 26.65625 -19.71875 C 26.9375 -20.203125 26.84375 -20.6875 26.359375 -21.171875 C 26.171875 -21.359375 25.984375 -21.453125 25.6875 -21.453125 C 25.5 -21.453125 25.203125 -21.359375 24.921875 -21.171875 C 24.625 -20.875 24.34375 -20.59375 24.0625 -20.296875 C 23.765625 -20.015625 23.375 -19.71875 23.09375 -19.4375 C 21.9375 -18.375 20.78125 -17.3125 19.71875 -16.265625 C 18.5625 -15.203125 17.421875 -14.046875 16.265625 -12.984375 C 13.46875 -10.390625 9.046875 -7.3125 5.203125 -6.546875 C 3.375 -6.546875 2.3125 -6.546875 1.921875 -8.75 C 1.4375 -10 1.34375 -11.0625 1.640625 -12.125 C 1.734375 -12.609375 2.015625 -12.890625 2.40625 -12.984375 C 7.03125 -13.46875 13.078125 -19.140625 13.859375 -23.859375 C 14.140625 -26.078125 12.890625 -27.421875 10.96875 -27.421875 C 10.875 -27.421875 10.6875 -27.421875 10.578125 -27.421875 C 10.484375 -27.328125 10.296875 -27.328125 10.203125 -27.328125 C 5.09375 -26.5625 1.34375 -19.828125 -0.28125 -15.296875 C -0.671875 -13.859375 -1.0625 -12.515625 -0.96875 -10.875 C -1.0625 -9.8125 -0.765625 -8.65625 -0.390625 -7.59375 C 0.28125 -5.203125 1.921875 -4.046875 4.515625 -4.046875 Z M 3.65625 -15.875 C 3.5625 -15.78125 3.375 -15.875 3.078125 -15.96875 C 2.984375 -15.96875 2.890625 -16.171875 2.890625 -16.453125 C 3.9375 -19.4375 7.21875 -24.25 10.390625 -24.734375 C 10.875 -24.828125 11.15625 -24.625 11.25 -23.953125 C 11.25 -20.875 6.15625 -17.21875 3.65625 -15.875 Z M 3.65625 -15.875 "/></g></g></g><g fill="#ffffff" fill-opacity="1"><g transform="translate(144.424514, 200.403664)"><g><path d="M 0.484375 -8.28125 C 1.734375 -8.28125 3.375 -9.625 4.234375 -10.390625 C 6.640625 -12.609375 8.75 -14.90625 10.96875 -17.515625 C 11.25 -17.796875 11.640625 -18.1875 11.9375 -18.5625 C 12.21875 -18.953125 12.703125 -19.25 13.375 -19.53125 C 12.703125 -16.9375 12.125 -14.4375 12.125 -11.828125 C 12.125 -10 12.890625 -9.046875 14.53125 -9.046875 C 14.90625 -9.046875 15.203125 -9.046875 15.390625 -9.140625 C 19.4375 -9.8125 26.265625 -16.265625 29.0625 -19.046875 C 29.15625 -19.140625 29.34375 -19.34375 29.4375 -19.4375 C 29.546875 -19.53125 29.546875 -19.625 29.640625 -19.71875 C 29.828125 -20.390625 29.734375 -20.875 29.25 -21.171875 C 29.0625 -21.359375 28.859375 -21.453125 28.578125 -21.453125 C 28.484375 -21.453125 28.390625 -21.359375 28.09375 -21.265625 C 27.8125 -21.078125 27.515625 -20.875 27.328125 -20.6875 C 27.03125 -20.390625 26.75 -20.203125 26.453125 -19.921875 C 25.59375 -19.25 24.828125 -18.5625 24.15625 -17.890625 C 23.375 -17.21875 22.609375 -16.453125 21.75 -15.78125 C 20.59375 -14.71875 19.34375 -13.953125 18.1875 -13.1875 C 17.3125 -12.703125 16.453125 -12.3125 15.59375 -11.9375 C 15.484375 -11.828125 15.390625 -11.828125 15.203125 -11.828125 C 14.8125 -11.828125 14.625 -12.125 14.625 -12.703125 C 14.625 -16.84375 17.609375 -23.859375 19.4375 -27.515625 C 19.625 -28 19.828125 -28.390625 20.109375 -28.859375 C 20.296875 -29.25 20.5 -29.640625 20.6875 -30.109375 C 20.96875 -30.984375 20.875 -31.65625 20.203125 -32.046875 C 19.921875 -32.140625 19.71875 -32.234375 19.625 -32.234375 C 19.34375 -32.234375 18.953125 -32.046875 18.46875 -31.5625 C 18.1875 -31.265625 18 -30.890625 17.796875 -30.59375 C 17.515625 -30.21875 17.3125 -29.828125 17.03125 -29.546875 C 16.453125 -28.765625 15.875 -28 15.390625 -27.234375 C 14.8125 -26.453125 14.234375 -25.6875 13.65625 -25.015625 C 13.28125 -24.53125 12.984375 -24.25 12.796875 -24.25 C 12.703125 -24.25 12.40625 -24.4375 11.9375 -24.734375 C 10.96875 -25.5 10 -25.890625 9.046875 -25.890625 C 7.984375 -25.890625 6.921875 -25.5 5.875 -24.625 C 5.203125 -24.15625 4.71875 -23.765625 4.421875 -23.375 C 1.546875 -20.5 -1.640625 -14.8125 -1.640625 -10.578125 C -1.546875 -9.046875 -0.765625 -8.28125 0.484375 -8.28125 Z M 1.34375 -11.734375 C 1.34375 -11.828125 1.34375 -11.828125 1.25 -11.828125 L 1.15625 -11.9375 C 1.921875 -16.0625 3.84375 -19.53125 6.828125 -22.125 C 7.3125 -22.609375 8.46875 -23.28125 9.140625 -23.28125 C 9.625 -23.28125 10 -23.09375 10.484375 -22.796875 C 10.96875 -22.515625 11.0625 -22.03125 10.875 -21.453125 C 10.78125 -21.171875 10.578125 -21.078125 10.484375 -20.96875 C 7.890625 -17.796875 5.296875 -14.625 2.21875 -12.03125 C 2.015625 -11.828125 1.734375 -11.734375 1.34375 -11.734375 Z M 1.34375 -11.734375 "/></g></g></g><g fill="#ffffff" fill-opacity="1"><g transform="translate(169.343164, 200.403664)"><g><path d="M 1.734375 6.828125 C 3.265625 6.828125 5.09375 5.484375 5.96875 4.328125 C 9.046875 0.765625 12.515625 -3.9375 15.6875 -8.28125 C 18.375 -11.9375 21.9375 -16.84375 23.859375 -19.140625 C 24.0625 -19.34375 24.15625 -19.53125 24.15625 -19.71875 C 24.4375 -20.296875 24.34375 -20.78125 23.859375 -21.171875 C 23.578125 -21.265625 23.375 -21.359375 23.1875 -21.359375 C 23.09375 -21.359375 23.09375 -21.359375 23 -21.359375 C 22.90625 -21.265625 22.90625 -21.265625 22.796875 -21.265625 C 22.328125 -21.078125 21.9375 -20.78125 21.65625 -20.5 C 21.359375 -20.109375 20.96875 -19.71875 20.6875 -19.34375 C 17.890625 -16.546875 9.421875 -3.84375 5.390625 1.25 C 4.90625 1.828125 4.421875 2.40625 3.9375 2.984375 C 3.46875 3.46875 2.890625 3.84375 2.015625 3.9375 C 0.578125 2.796875 1.0625 1.0625 1.15625 -0.390625 C 1.4375 -3.75 1.828125 -6.828125 2.59375 -10 C 3.84375 -15.59375 8.859375 -30.890625 11.0625 -35.796875 C 11.546875 -37.046875 12.515625 -37.625 13.859375 -37.71875 L 34.546875 -39.546875 C 35.03125 -39.640625 35.40625 -39.640625 35.796875 -39.734375 C 36.171875 -39.734375 36.5625 -39.828125 37.046875 -39.9375 C 37.421875 -40.03125 37.625 -40.40625 37.625 -40.890625 C 37.53125 -41.5625 37.234375 -41.859375 36.859375 -41.859375 L 33.390625 -41.859375 C 30.6875 -41.5625 27.8125 -41.28125 24.625 -41.078125 C 21.453125 -40.796875 18.5625 -40.515625 15.875 -40.21875 C 15.78125 -40.21875 15.59375 -40.21875 15.390625 -40.21875 C 15.203125 -40.125 15.015625 -40.125 14.8125 -40.125 C 14.4375 -40.125 14.046875 -40.21875 13.5625 -40.3125 C 13.5625 -40.796875 13.65625 -41.28125 13.859375 -41.65625 C 13.953125 -41.953125 14.140625 -42.34375 14.234375 -42.625 C 15.484375 -45.21875 16.734375 -47.71875 17.796875 -50.328125 C 18.28125 -51.1875 18.375 -51.953125 18.28125 -52.4375 C 18.09375 -52.921875 17.796875 -53.109375 17.421875 -53.109375 C 16.734375 -53.109375 16.0625 -52.53125 15.390625 -51.375 C 14.90625 -50.609375 14.4375 -49.84375 14.046875 -49.078125 C 13.5625 -48.296875 13.1875 -47.53125 12.703125 -46.765625 L 10.109375 -40.984375 C 9.625 -39.9375 8.859375 -39.453125 7.703125 -39.359375 C 6.0625 -39.15625 4.328125 -38.96875 2.59375 -38.78125 C 0.859375 -38.578125 -0.859375 -38.390625 -2.59375 -38.109375 C -3.078125 -38 -3.5625 -37.90625 -4.046875 -37.8125 C -4.421875 -37.71875 -4.8125 -37.53125 -5.296875 -37.421875 C -5.765625 -37.328125 -5.875 -36.953125 -5.765625 -36.375 C -5.671875 -36.078125 -5.484375 -35.890625 -5.09375 -35.796875 C -4.8125 -35.703125 -4.515625 -35.703125 -4.046875 -35.703125 C -3.265625 -35.703125 -2.40625 -35.890625 -1.640625 -35.984375 C -0.390625 -36.078125 0.96875 -36.28125 2.3125 -36.46875 C 3.5625 -36.65625 4.90625 -36.859375 6.15625 -36.953125 L 6.921875 -36.953125 C 8.078125 -36.953125 8.171875 -36.46875 7.703125 -35.03125 C 7.03125 -33.390625 6.546875 -31.84375 5.875 -30.015625 C 2.6875 -21.359375 -1.34375 -8.171875 -1.34375 1.15625 C -1.34375 3.375 -0.765625 6.828125 1.734375 6.828125 Z M 1.734375 6.828125 "/></g></g></g><g fill="#ffffff" fill-opacity="1"><g transform="translate(188.681572, 200.403664)"><g><path d="M 4.046875 -4.8125 C 4.90625 -4.8125 5.875 -5.09375 6.734375 -5.578125 C 7.984375 -6.453125 8.953125 -7.5 9.625 -8.953125 C 10.484375 -10.78125 10.6875 -12.609375 10.296875 -14.4375 C 10 -16.0625 9.90625 -16.0625 11.734375 -16.359375 C 13.765625 -16.546875 15.59375 -17.03125 17.421875 -17.703125 C 19.140625 -18.375 20.96875 -18.953125 22.796875 -19.625 C 23.671875 -19.921875 23.859375 -20.5 23.578125 -21.171875 C 23.28125 -21.65625 22.796875 -21.9375 22.328125 -21.9375 L 20.78125 -21.546875 C 19.921875 -21.265625 19.046875 -20.875 18.1875 -20.59375 C 17.3125 -20.296875 16.359375 -19.921875 15.484375 -19.625 C 13.65625 -19.046875 11.9375 -18.765625 10.109375 -18.765625 L 7.125 -18.765625 C 6.453125 -18.671875 5.875 -18 6.15625 -17.3125 C 6.453125 -16.640625 6.734375 -16.0625 7.125 -15.390625 C 8.5625 -13.1875 8.078125 -11.15625 6.828125 -9.140625 C 5.96875 -7.59375 5 -7.40625 3.46875 -7.40625 C 2.21875 -7.703125 1.546875 -8.859375 1.546875 -10.6875 C 1.546875 -11.734375 1.640625 -12.703125 1.921875 -13.46875 C 2.3125 -15.109375 2.984375 -16.734375 3.84375 -18.375 C 4.90625 -20.015625 5.765625 -21.65625 7.984375 -22.03125 C 8.65625 -22.125 8.65625 -22.609375 8.5625 -23.28125 C 8.46875 -23.765625 8.171875 -24.15625 7.5 -24.25 C 7.03125 -24.25 6.640625 -24.15625 6.25 -23.953125 C 2.5 -22.515625 -0.671875 -15.296875 -0.96875 -11.359375 C -1.0625 -10.578125 -0.96875 -9.71875 -0.765625 -8.859375 C -0.28125 -6.25 1.734375 -4.8125 4.046875 -4.8125 Z M 4.046875 -4.8125 "/></g></g></g><g fill="#ffffff" fill-opacity="1"><g transform="translate(207.538928, 200.403664)"><g><path d="M -0.484375 -0.96875 C -0.09375 -0.96875 0.1875 -1.0625 0.484375 -1.25 C 1.0625 -1.734375 1.546875 -2.21875 1.828125 -2.890625 C 2.109375 -3.46875 2.40625 -4.046875 2.6875 -4.625 C 5.671875 -10.6875 9.328125 -16.453125 14.34375 -20.96875 C 14.53125 -21.171875 14.71875 -21.265625 15.015625 -21.265625 C 15.296875 -21.265625 15.59375 -20.96875 15.6875 -20.5 C 15.78125 -19.53125 15.96875 -18.5625 16.0625 -17.703125 C 16.171875 -16.734375 16.265625 -15.78125 16.359375 -14.8125 C 16.453125 -13.65625 16.734375 -12.515625 17.421875 -11.25 C 18.1875 -9.90625 19.25 -9.234375 20.5 -9.234375 C 20.59375 -9.234375 20.78125 -9.234375 20.96875 -9.328125 C 21.078125 -9.328125 21.265625 -9.328125 21.359375 -9.328125 C 22.796875 -9.625 24.0625 -10.296875 25.203125 -11.359375 C 26.265625 -12.3125 31.9375 -17.421875 33 -18.46875 C 33.390625 -18.859375 33.671875 -19.34375 33.875 -19.828125 C 34.0625 -20.296875 33.96875 -20.78125 33.484375 -21.171875 C 33.296875 -21.359375 33.09375 -21.453125 32.8125 -21.453125 C 32.515625 -21.453125 32.328125 -21.359375 32.140625 -21.171875 C 31.9375 -21.078125 31.75 -20.78125 31.46875 -20.5 C 31.171875 -20.203125 30.5 -19.53125 29.4375 -18.671875 C 28.578125 -17.890625 27.71875 -17.125 26.9375 -16.359375 C 26.078125 -15.484375 25.3125 -14.71875 24.4375 -13.953125 C 23.375 -13.078125 22.421875 -12.3125 21.265625 -11.9375 C 21.171875 -11.9375 21.078125 -11.9375 21.078125 -11.9375 C 20.96875 -11.828125 20.875 -11.828125 20.78125 -11.828125 C 20.203125 -11.828125 19.828125 -12.125 19.625 -12.609375 C 19.140625 -13.46875 18.859375 -14.4375 18.765625 -15.59375 C 18.671875 -16.359375 18.5625 -17.125 18.5625 -17.890625 C 18.46875 -18.671875 18.375 -19.4375 18.28125 -20.296875 C 18 -21.9375 17.703125 -24.25 15.484375 -24.25 C 11.734375 -24.25 4.328125 -13.1875 2.6875 -9.90625 C 2.40625 -10.578125 2.3125 -11.15625 2.59375 -11.734375 C 2.796875 -12.3125 2.984375 -12.890625 3.171875 -13.46875 C 4.140625 -15.875 5.09375 -18.375 6.0625 -20.875 C 6.921875 -23.28125 7.890625 -25.78125 8.859375 -28.1875 L 9.421875 -29.34375 C 9.71875 -30.015625 9.625 -30.59375 8.953125 -30.984375 C 8.65625 -31.078125 8.46875 -31.171875 8.375 -31.171875 C 7.3125 -31.171875 6.453125 -28.578125 5.875 -27.71875 C 5 -25.3125 4.046875 -22.90625 3.171875 -20.5 C 2.3125 -18.09375 1.34375 -15.6875 0.484375 -13.28125 C -0.578125 -10.109375 -1.546875 -6.921875 -1.921875 -3.5625 C -1.921875 -2.984375 -1.921875 -2.59375 -1.828125 -2.3125 C -1.734375 -1.4375 -1.25 -0.96875 -0.484375 -0.96875 Z M -0.484375 -0.96875 "/></g></g></g></svg>